{"asset":{"version":"2.0","generator":"THREE.GLTFExporter"},"scenes":[{"nodes":[1]}],"scene":0,"nodes":[{"matrix":[-0.7071073373858852,0.7071062791372142,0,0,-0.7071062791372142,-0.7071073373858852,0,0,0,0,1,0,-43.206199645996094,166.3520050048828,-609.27099609375,1],"name":"engine_blade_11_f35_ext_3_0","extras":{"name":"engine_blade_11_f35_ext_3_0"},"mesh":0},{"children":[0]}],"bufferViews":[{"buffer":0,"byteOffset":0,"byteLength":996,"target":34962,"byteStride":12},{"buffer":0,"byteOffset":996,"byteLength":996,"target":34962,"byteStride":12},{"buffer":0,"byteOffset":1992,"byteLength":664,"target":34962,"byteStride":8},{"buffer":0,"byteOffset":2656,"byteLength":392,"target":34963}],"buffers":[{"byteLength":3048,"uri":"data:application/octet-stream;base64,"}],"accessors":[{"bufferView":0,"componentType":5126,"count":83,"max":[21.379636764526367,4.588940143585205,20.600799560546875],"min":[-12.19279956817627,-11.788800239562988,-60.01435852050781],"type":"VEC3"},{"bufferView":1,"componentType":5126,"count":83,"max":[0.9971495866775513,0.9925253391265869,0.13608066737651825],"min":[-0.9989701509475708,-0.999990701675415,-0.9989308714866638],"type":"VEC3"},{"bufferView":2,"componentType":5126,"count":83,"max":[0.9892982840538025,0.5371999740600586],"min":[0.10199999809265137,0.005100369453430176],"type":"VEC2"},{"bufferView":3,"componentType":5123,"count":195,"max":[82],"min":[0],"type":"SCALAR"}],"materials":[{"pbrMetallicRoughness":{"metallicFactor":0,"roughnessFactor":1,"metallicRoughnessTexture":{"index":0},"baseColorTexture":{"index":1}},"normalTexture":{"index":2,"scale":1},"doubleSided":true,"name":"f35_ext_3"}],"textures":[{"sampler":0,"source":0},{"sampler":1,"source":1},{"sampler":2,"source":2}],"samplers":[{"magFilter":9729,"minFilter":9987,"wrapS":10497,"wrapT":10497},{"magFilter":9729,"minFilter":9987,"wrapS":10497,"wrapT":10497},{"magFilter":9729,"minFilter":9987,"wrapS":10497,"wrapT":10497}],"images":[{"mimeType":"image/jpeg","uri":"data:image/jpeg;base64,"},{"mimeType":"image/jpeg","uri":"data:image/jpeg;base64,"},{"mimeType":"image/jpeg","uri":"data:image/jpeg;base64,"}],"meshes":[{"primitives":[{"mode":4,"attributes":{"POSITION":0,"NORMAL":1,"TEXCOORD_0":2},"indices":3,"material":0}]}]}