{"asset":{"version":"2.0","generator":"THREE.GLTFExporter"},"scenes":[{"nodes":[1]}],"scene":0,"nodes":[{"matrix":[-1.0249799489974976,0,1.5476766997407446e-7,0,0,1.0249799489974976,0,0,-1.5476766997407446e-7,0,-1.0249799489974976,0,0.028105249628424644,223.2691192626953,471.16748046875,1],"name":"Object232_f35_mfd_0","extras":{"name":"Object232_f35_mfd_0"},"mesh":0},{"children":[0]}],"bufferViews":[{"buffer":0,"byteOffset":0,"byteLength":48,"target":34962,"byteStride":12},{"buffer":0,"byteOffset":48,"byteLength":48,"target":34962,"byteStride":12},{"buffer":0,"byteOffset":96,"byteLength":32,"target":34962,"byteStride":8},{"buffer":0,"byteOffset":128,"byteLength":12,"target":34963}],"buffers":[{"byteLength":140,"uri":"data:application/octet-stream;base64,"}],"accessors":[{"bufferView":0,"componentType":5126,"count":4,"max":[22.850061416625977,51.8232307434082,-20.190000534057617],"min":[-22.850000381469727,29.41699981689453,-23.139816284179688],"type":"VEC3"},{"bufferView":1,"componentType":5126,"count":4,"max":[0.001875172252766788,0.12855440378189087,0.9917007684707642],"min":[0.0018749814480543137,0.12855416536331177,0.9917007088661194],"type":"VEC3"},{"bufferView":2,"componentType":5126,"count":4,"max":[1.0000007152557373,0.9999992847442627],"min":[1.3510299368135747e-7,-0.0000013113021850585938],"type":"VEC2"},{"bufferView":3,"componentType":5123,"count":6,"max":[3],"min":[0],"type":"SCALAR"}],"materials":[{"pbrMetallicRoughness":{"baseColorFactor":[0,0,0,1],"metallicFactor":0,"roughnessFactor":0.17000000178813934},"emissiveFactor":[1,1,1],"emissiveTexture":{"index":0},"doubleSided":true,"name":"f35_mfd"}],"textures":[{"sampler":0,"source":0}],"samplers":[{"magFilter":9729,"minFilter":9987,"wrapS":10497,"wrapT":10497}],"images":[{"mimeType":"image/jpeg","uri":"data:image/jpeg;base64,"}],"meshes":[{"primitives":[{"mode":4,"attributes":{"POSITION":0,"NORMAL":1,"TEXCOORD_0":2},"indices":3,"material":0}]}]}