{"asset":{"version":"2.0","generator":"THREE.GLTFExporter"},"scenes":[{"nodes":[1]}],"scene":0,"nodes":[{"matrix":[1,0,0,0,0,1,0,0,0,0,1,0,0.02860639989376068,234.08798217773438,612.4010009765625,1],"name":"canopy_canopy_glass_0","extras":{"name":"canopy_canopy_glass_0"},"mesh":0},{"children":[0]}],"bufferViews":[{"buffer":0,"byteOffset":0,"byteLength":2724,"target":34962,"byteStride":12},{"buffer":0,"byteOffset":2724,"byteLength":2724,"target":34962,"byteStride":12},{"buffer":0,"byteOffset":5448,"byteLength":1816,"target":34962,"byteStride":8},{"buffer":0,"byteOffset":7264,"byteLength":1816,"target":34962,"byteStride":8},{"buffer":0,"byteOffset":9080,"byteLength":2508,"target":34963}],"buffers":[{"byteLength":11588,"uri":"data:application/octet-stream;base64,"}],"accessors":[{"bufferView":0,"componentType":5126,"count":227,"max":[53.3411865234375,93.11695098876953,-29.985000610351562],"min":[-53.398399353027344,18.342500686645508,-315.3531799316406],"type":"VEC3"},{"bufferView":1,"componentType":5126,"count":227,"max":[0.9402123689651489,0.9999618530273438,0.5563232898712158],"min":[-0.9402123689651489,0.31566473841667175,-0.10464798659086227],"type":"VEC3"},{"bufferView":2,"componentType":5126,"count":227,"max":[1.718757152557373,1.218224048614502],"min":[-0.7963690161705017,-0.220650315284729],"type":"VEC2"},{"bufferView":3,"componentType":5126,"count":227,"max":[0.92112797498703,0.5035899877548218],"min":[0.7703379988670349,0.44501447677612305],"type":"VEC2"},{"bufferView":4,"componentType":5123,"count":1254,"max":[226],"min":[0],"type":"SCALAR"}],"materials":[{"pbrMetallicRoughness":{"baseColorFactor":[0.01038201991468668,0.014139129780232906,0.0077000209130346775,0.4099999964237213],"metallicFactor":0,"roughnessFactor":0.10000000149011612},"alphaMode":"BLEND","doubleSided":true,"name":"canopy_glass"}],"meshes":[{"primitives":[{"mode":4,"attributes":{"POSITION":0,"NORMAL":1,"TEXCOORD_0":2,"TEXCOORD_1":3},"indices":4,"material":0}]}]}